File Name

Charlies Angels 2000 BRRip H264 LKRG-Wrath.mp4

File Size
Format : MPEG-4
Format profile : Base Media
Codec ID : isom
File size : 1.77 GiB
Duration : 1h 38mn
Overall bit rate : 2 577 Kbps

Video
ID : 1
Format : AVC
Format/Info : Advanced Video Codec
Format profile : High@L4.1
Format settings, CABAC : Yes
Format settings, ReFrames : 3 frames
Codec ID : avc1
Codec ID/Info : Advanced Video Coding
Duration : 1h 38mn
Bit rate mode : Variable
Bit rate : 1 996 Kbps
Maximum bit rate : 13.8 Mbps
Width : 1 280 pixels
Height : 536 pixels
Display aspect ratio : 2.35:1
Frame rate mode : Constant
Frame rate : 23.976 fps
Bits/(Pixel*Frame) : 0.121
Stream size : 1.37 GiB (77%)

Audio #1
ID : 2
Format : AAC
Format/Info : Advanced Audio Codec
Format version : Version 4
Format profile : LC
Format settings, SBR : No
Codec ID : 40
Duration : 1h 38mn
Bit rate mode : Variable
Bit rate : 128 Kbps
Maximum bit rate : 136 Kbps
Channel(s) : 2 channels
Channel positions : L R
Sampling rate : 48.0 KHz
Resolution : 16 bits
Stream size : 90.1 MiB (5%)

Audio #2
ID : 3
Format : AAC
Format/Info : Advanced Audio Codec
Format version : Version 4
Format profile : LC
Format settings, SBR : No
Codec ID : 40
Duration : 1h 38mn
Bit rate mode : Variable
Bit rate : 448 Kbps
Maximum bit rate : 462 Kbps
Channel(s) : 6 channels
Channel positions : Front: L C R, Rear: L R, LFE
Sampling rate : 48.0 KHz
Resolution : 16 bits
Stream size : 315 MiB (17%)

Text
ID : 4
Format : Timed text
Codec ID : tx3g
Duration : 1h 32mn
Bit rate mode : Variable
Bit rate : 42 bps
Stream size : 28.7 KiB (0%)

English SRT : External

Language : English

 
http://www.imdb.com/title/tt0160127/

Release Date: 3 November 2000 (USA) 

Genre: Action | Adventure | Comedy | Crime 

Plot: Three women, detectives with a mysterious boss, retrieve stolen voice-ID software, using martial arts, tech skills, and sex appeal. 

Cast: 
Cameron Diaz ... Natalie Cook
Drew Barrymore ... Dylan Sanders
Lucy Liu ... Alex Munday
Bill Murray ... John Bosley
Sam Rockwell ... Eric Knox
Kelly Lynch ... Vivian Wood
Tim Curry ... Roger Corwin
Crispin Glover ... Thin Man
Matt LeBlanc ... Jason Gibbons
LL Cool J ... Mr. Jones
Tom Green ... Chad
Luke Wilson ... Pete Komisky
Sean Whalen ... Pasqual
Tim Dunaway ... Flight Attendant
Alex Trebek ... Himself


Screenshots
 
http://postimg.com/image/18000/17112.jpg